<svg width="137" height="137" viewBox="0 0 137 137" fill="none" xmlns="http://www.w3.org/2000/svg">
<path d="M14.2653 108.458V39.9583H122.724V108.458C122.724 114.738 117.586 119.875 111.307 119.875H25.6819C19.4028 119.875 14.2653 114.738 14.2653 108.458Z" fill="#CFD8DC"/>
<path d="M122.724 28.5417V45.6667H14.2653V28.5417C14.2653 22.2625 19.4028 17.125 25.6819 17.125H111.307C117.586 17.125 122.724 22.2625 122.724 28.5417Z" fill="#1B1B1A"/>
<path d="M94.1875 37.1042C98.9164 37.1042 102.75 33.2706 102.75 28.5417C102.75 23.8127 98.9164 19.9792 94.1875 19.9792C89.4586 19.9792 85.625 23.8127 85.625 28.5417C85.625 33.2706 89.4586 37.1042 94.1875 37.1042Z" fill="#B71C1C"/>
<path d="M42.8125 37.1042C47.5414 37.1042 51.375 33.2706 51.375 28.5417C51.375 23.8127 47.5414 19.9792 42.8125 19.9792C38.0836 19.9792 34.25 23.8127 34.25 28.5417C34.25 33.2706 38.0836 37.1042 42.8125 37.1042Z" fill="#B71C1C"/>
<path d="M94.1931 8.5625C91.0535 8.5625 88.4847 11.1313 88.4847 14.2708V28.5417C88.4847 31.6813 91.0535 34.25 94.1931 34.25C97.3327 34.25 99.9014 31.6813 99.9014 28.5417V14.2708C99.9014 11.1313 97.3327 8.5625 94.1931 8.5625Z" fill="#B0BEC5"/>
<path d="M42.8181 8.5625C39.6785 8.5625 37.1097 11.1313 37.1097 14.2708V28.5417C37.1097 31.6813 39.6785 34.25 42.8181 34.25C45.9577 34.25 48.5264 31.6813 48.5264 28.5417V14.2708C48.5264 11.1313 45.9577 8.5625 42.8181 8.5625Z" fill="#B0BEC5"/>
<path d="M48.5264 57.0833H37.1097V68.5H48.5264V57.0833Z" fill="#EB581A"/>
<path d="M65.6514 57.0833H54.2347V68.5H65.6514V57.0833Z" fill="#EB581A"/>
<path d="M82.7764 57.0833H71.3597V68.5H82.7764V57.0833Z" fill="#EB581A"/>
<path d="M99.9014 57.0833H88.4847V68.5H99.9014V57.0833Z" fill="#EB581A"/>
<path d="M48.5264 74.2083H37.1097V85.625H48.5264V74.2083Z" fill="#EB581A"/>
<path d="M65.6514 74.2083H54.2347V85.625H65.6514V74.2083Z" fill="#EB581A"/>
<path d="M82.7764 74.2083H71.3597V85.625H82.7764V74.2083Z" fill="#EB581A"/>
<path d="M99.9014 74.2083H88.4847V85.625H99.9014V74.2083Z" fill="#EB581A"/>
<path d="M48.5264 91.3333H37.1097V102.75H48.5264V91.3333Z" fill="#EB581A"/>
<path d="M65.6514 91.3333H54.2347V102.75H65.6514V91.3333Z" fill="#EB581A"/>
<path d="M82.7764 91.3333H71.3597V102.75H82.7764V91.3333Z" fill="#EB581A"/>
<path d="M99.9014 91.3333H88.4847V102.75H99.9014V91.3333Z" fill="#EB581A"/>
</svg>
