<svg width="514" height="137" viewBox="0 0 514 137" fill="none" xmlns="http://www.w3.org/2000/svg">
<path d="M14.2653 108.458V39.9583H122.724V108.458C122.724 114.738 117.586 119.875 111.307 119.875H25.6819C19.4028 119.875 14.2653 114.738 14.2653 108.458Z" fill="#CFD8DC"/>
<path d="M122.724 28.5417V45.6667H14.2653V28.5417C14.2653 22.2625 19.4028 17.125 25.6819 17.125H111.307C117.586 17.125 122.724 22.2625 122.724 28.5417Z" fill="#1B1B1A"/>
<path d="M94.1875 37.1042C98.9164 37.1042 102.75 33.2706 102.75 28.5417C102.75 23.8127 98.9164 19.9792 94.1875 19.9792C89.4586 19.9792 85.625 23.8127 85.625 28.5417C85.625 33.2706 89.4586 37.1042 94.1875 37.1042Z" fill="#B71C1C"/>
<path d="M42.8125 37.1042C47.5414 37.1042 51.375 33.2706 51.375 28.5417C51.375 23.8127 47.5414 19.9792 42.8125 19.9792C38.0836 19.9792 34.25 23.8127 34.25 28.5417C34.25 33.2706 38.0836 37.1042 42.8125 37.1042Z" fill="#B71C1C"/>
<path d="M94.1931 8.5625C91.0535 8.5625 88.4847 11.1312 88.4847 14.2708V28.5417C88.4847 31.6813 91.0535 34.25 94.1931 34.25C97.3327 34.25 99.9014 31.6813 99.9014 28.5417V14.2708C99.9014 11.1312 97.3327 8.5625 94.1931 8.5625Z" fill="#B0BEC5"/>
<path d="M42.8181 8.5625C39.6785 8.5625 37.1097 11.1312 37.1097 14.2708V28.5417C37.1097 31.6813 39.6785 34.25 42.8181 34.25C45.9577 34.25 48.5264 31.6813 48.5264 28.5417V14.2708C48.5264 11.1312 45.9577 8.5625 42.8181 8.5625Z" fill="#B0BEC5"/>
<path d="M48.5264 57.0833H37.1097V68.5H48.5264V57.0833Z" fill="#EB581A"/>
<path d="M65.6514 57.0833H54.2347V68.5H65.6514V57.0833Z" fill="#EB581A"/>
<path d="M82.7764 57.0833H71.3597V68.5H82.7764V57.0833Z" fill="#EB581A"/>
<path d="M99.9014 57.0833H88.4847V68.5H99.9014V57.0833Z" fill="#EB581A"/>
<path d="M48.5264 74.2083H37.1097V85.625H48.5264V74.2083Z" fill="#EB581A"/>
<path d="M65.6514 74.2083H54.2347V85.625H65.6514V74.2083Z" fill="#EB581A"/>
<path d="M82.7764 74.2083H71.3597V85.625H82.7764V74.2083Z" fill="#EB581A"/>
<path d="M99.9014 74.2083H88.4847V85.625H99.9014V74.2083Z" fill="#EB581A"/>
<path d="M48.5264 91.3333H37.1097V102.75H48.5264V91.3333Z" fill="#EB581A"/>
<path d="M65.6514 91.3333H54.2347V102.75H65.6514V91.3333Z" fill="#EB581A"/>
<path d="M82.7764 91.3333H71.3597V102.75H82.7764V91.3333Z" fill="#EB581A"/>
<path d="M99.9014 91.3333H88.4847V102.75H99.9014V91.3333Z" fill="#EB581A"/>
<path d="M173.5 44.56C173.5 50.02 170.35 53.94 163.14 53.94H153.76V35.46H163.14C170.42 35.46 173.5 39.03 173.5 44.56ZM147.39 30.21V79H153.76V59.05H161.46L173.08 79H180.71L168.46 58.56C176.65 56.74 180.08 50.79 180.08 44.56C180.08 36.58 174.62 30.21 163.14 30.21H147.39Z" fill="#1B1B1A"/>
<path d="M187.598 54.57C187.598 69.2 198.308 79.42 211.958 79.42C222.528 79.42 230.928 74.17 234.568 64.79H226.938C224.278 70.6 219.098 73.89 211.958 73.89C201.738 73.89 194.108 66.47 194.108 54.57C194.108 42.6 201.738 35.18 211.958 35.18C219.098 35.18 224.278 38.47 226.938 44.35H234.568C230.928 34.9 222.528 29.58 211.958 29.58C198.308 29.58 187.598 39.94 187.598 54.57ZM241.67 59.68C241.67 71.58 249.58 79.63 259.8 79.63C266.87 79.63 271.84 75.99 274.15 71.86V79H280.59V40.64H274.15V47.64C271.91 43.65 267.01 40.01 259.87 40.01C249.58 40.01 241.67 47.71 241.67 59.68ZM274.15 59.75C274.15 68.78 268.13 74.03 261.13 74.03C254.13 74.03 248.18 68.71 248.18 59.68C248.18 50.65 254.13 45.54 261.13 45.54C268.13 45.54 274.15 50.86 274.15 59.75ZM291.355 79H297.725V27.2H291.355V79ZM324.891 45.4C331.471 45.4 337.071 49.53 337.001 57.02H312.781C313.481 49.53 318.661 45.4 324.891 45.4ZM342.811 67.17H335.951C334.551 71.3 330.911 74.24 325.171 74.24C318.661 74.24 313.201 69.97 312.711 62.2H343.371C343.511 60.87 343.581 59.75 343.581 58.35C343.581 47.85 336.301 40.01 325.171 40.01C313.971 40.01 306.201 47.64 306.201 59.75C306.201 71.93 314.251 79.63 325.171 79.63C334.691 79.63 340.851 74.17 342.811 67.17ZM380.06 79H386.36V56.39C386.36 45.4 379.57 39.94 370.68 39.94C365.5 39.94 360.88 42.11 358.36 46.1V40.64H351.99V79H358.36V57.79C358.36 49.53 362.84 45.47 369.35 45.47C375.79 45.47 380.06 49.46 380.06 57.3V79ZM394.385 59.68C394.385 71.58 402.295 79.63 412.585 79.63C419.585 79.63 424.555 76.06 426.865 71.79V79H433.305V27.2H426.865V47.5C424.205 43.09 418.675 40.01 412.655 40.01C402.295 40.01 394.385 47.71 394.385 59.68ZM426.865 59.75C426.865 68.78 420.845 74.03 413.845 74.03C406.845 74.03 400.895 68.71 400.895 59.68C400.895 50.65 406.845 45.54 413.845 45.54C420.845 45.54 426.865 50.86 426.865 59.75ZM441.69 59.68C441.69 71.58 449.6 79.63 459.82 79.63C466.89 79.63 471.86 75.99 474.17 71.86V79H480.61V40.64H474.17V47.64C471.93 43.65 467.03 40.01 459.89 40.01C449.6 40.01 441.69 47.71 441.69 59.68ZM474.17 59.75C474.17 68.78 468.15 74.03 461.15 74.03C454.15 74.03 448.2 68.71 448.2 59.68C448.2 50.65 454.15 45.54 461.15 45.54C468.15 45.54 474.17 50.86 474.17 59.75ZM497.744 58.14C497.744 49.25 502.364 46.52 508.454 46.52H510.134V39.94C504.044 39.94 499.914 42.6 497.744 46.87V40.64H491.374V79H497.744V58.14Z" fill="#EB581A"/>
<path d="M153.82 98.44C155.888 98.44 157.648 99.738 157.626 102.092H150.014C150.234 99.738 151.862 98.44 153.82 98.44ZM159.452 105.282H157.296C156.856 106.58 155.712 107.504 153.908 107.504C151.862 107.504 150.146 106.162 149.992 103.72H159.628C159.672 103.302 159.694 102.95 159.694 102.51C159.694 99.21 157.406 96.746 153.908 96.746C150.388 96.746 147.946 99.144 147.946 102.95C147.946 106.778 150.476 109.198 153.908 109.198C156.9 109.198 158.836 107.482 159.452 105.282ZM161.589 102.928C161.589 106.668 164.075 109.198 167.287 109.198C169.509 109.198 171.071 108.054 171.797 106.756V109H173.821V96.944H171.797V99.144C171.093 97.89 169.553 96.746 167.309 96.746C164.075 96.746 161.589 99.166 161.589 102.928ZM171.797 102.95C171.797 105.788 169.905 107.438 167.705 107.438C165.505 107.438 163.635 105.766 163.635 102.928C163.635 100.09 165.505 98.484 167.705 98.484C169.905 98.484 171.797 100.156 171.797 102.95ZM185.872 105.722C185.784 101.41 178.788 102.972 178.788 100.112C178.788 99.144 179.668 98.44 181.142 98.44C182.748 98.44 183.672 99.32 183.76 100.53H185.762C185.63 98.176 183.87 96.746 181.208 96.746C178.524 96.746 176.786 98.264 176.786 100.112C176.786 104.6 183.914 103.038 183.914 105.722C183.914 106.712 183.034 107.504 181.45 107.504C179.756 107.504 178.722 106.624 178.612 105.458H176.544C176.676 107.658 178.656 109.198 181.472 109.198C184.134 109.198 185.872 107.702 185.872 105.722ZM193.274 106.712L189.49 96.944H187.268L192.13 108.868L189.754 114.676H191.822L199.082 96.944H197.014L193.274 106.712ZM209.314 109H211.382L214.286 99.43L217.19 109H219.258L223.02 96.944H221.04L218.312 107.086L215.386 96.944H213.34L210.348 107.064L207.576 96.944H205.53L209.314 109ZM224.259 102.928C224.259 106.668 226.745 109.198 229.957 109.198C232.179 109.198 233.741 108.054 234.467 106.756V109H236.491V96.944H234.467V99.144C233.763 97.89 232.223 96.746 229.979 96.746C226.745 96.746 224.259 99.166 224.259 102.928ZM234.467 102.95C234.467 105.788 232.575 107.438 230.375 107.438C228.175 107.438 226.305 105.766 226.305 102.928C226.305 100.09 228.175 98.484 230.375 98.484C232.575 98.484 234.467 100.156 234.467 102.95ZM244.45 106.712L240.666 96.944H238.444L243.306 108.868L240.93 114.676H242.998L250.258 96.944H248.19L244.45 106.712ZM258.575 105.7C258.575 108.12 259.785 109 261.919 109H263.723V107.306H262.249C261.017 107.306 260.577 106.888 260.577 105.7V98.594H263.723V96.944H260.577V93.908H258.575V96.944H257.013V98.594H258.575V105.7ZM277.589 102.95C277.589 99.144 274.927 96.746 271.495 96.746C268.085 96.746 265.401 99.144 265.401 102.95C265.401 106.778 267.997 109.198 271.407 109.198C274.839 109.198 277.589 106.778 277.589 102.95ZM267.447 102.95C267.447 99.914 269.361 98.484 271.473 98.484C273.541 98.484 275.543 99.914 275.543 102.95C275.543 106.008 273.497 107.438 271.407 107.438C269.317 107.438 267.447 106.008 267.447 102.95ZM303.489 109H305.469V101.894C305.469 98.44 303.335 96.724 300.585 96.724C298.737 96.724 297.021 97.67 296.317 99.408C295.525 97.604 293.875 96.724 291.895 96.724C290.311 96.724 288.881 97.406 288.089 98.682V96.944H286.087V109H288.089V102.356C288.089 99.76 289.475 98.462 291.499 98.462C293.479 98.462 294.799 99.716 294.799 102.18V109H296.779V102.356C296.779 99.76 298.165 98.462 300.189 98.462C302.169 98.462 303.489 99.716 303.489 102.18V109ZM308.005 102.928C308.005 106.668 310.491 109.198 313.703 109.198C315.925 109.198 317.487 108.054 318.213 106.756V109H320.237V96.944H318.213V99.144C317.509 97.89 315.969 96.746 313.725 96.746C310.491 96.746 308.005 99.166 308.005 102.928ZM318.213 102.95C318.213 105.788 316.321 107.438 314.121 107.438C311.921 107.438 310.051 105.766 310.051 102.928C310.051 100.09 311.921 98.484 314.121 98.484C316.321 98.484 318.213 100.156 318.213 102.95ZM332.442 109H334.422V101.894C334.422 98.44 332.288 96.724 329.494 96.724C327.866 96.724 326.414 97.406 325.622 98.66V96.944H323.62V109H325.622V102.334C325.622 99.738 327.03 98.462 329.076 98.462C331.1 98.462 332.442 99.716 332.442 102.18V109ZM336.944 102.928C336.944 106.668 339.43 109.198 342.642 109.198C344.864 109.198 346.426 108.054 347.152 106.756V109H349.176V96.944H347.152V99.144C346.448 97.89 344.908 96.746 342.664 96.746C339.43 96.746 336.944 99.166 336.944 102.928ZM347.152 102.95C347.152 105.788 345.26 107.438 343.06 107.438C340.86 107.438 338.99 105.766 338.99 102.928C338.99 100.09 340.86 98.484 343.06 98.484C345.26 98.484 347.152 100.156 347.152 102.95ZM351.811 102.928C351.811 106.668 354.297 109.198 357.531 109.198C359.731 109.198 361.293 108.032 362.019 106.734V109.264C362.019 111.838 360.413 113.202 358.279 113.202C356.299 113.202 354.869 112.212 354.429 110.76H352.449C352.845 113.334 355.111 114.94 358.279 114.94C361.821 114.94 364.043 112.586 364.043 109.264V96.944H362.019V99.144C361.315 97.846 359.731 96.746 357.531 96.746C354.297 96.746 351.811 99.166 351.811 102.928ZM362.019 102.95C362.019 105.788 360.127 107.438 357.927 107.438C355.727 107.438 353.857 105.766 353.857 102.928C353.857 100.09 355.727 98.484 357.927 98.484C360.127 98.484 362.019 100.156 362.019 102.95ZM372.552 98.44C374.62 98.44 376.38 99.738 376.358 102.092H368.746C368.966 99.738 370.594 98.44 372.552 98.44ZM378.184 105.282H376.028C375.588 106.58 374.444 107.504 372.64 107.504C370.594 107.504 368.878 106.162 368.724 103.72H378.36C378.404 103.302 378.426 102.95 378.426 102.51C378.426 99.21 376.138 96.746 372.64 96.746C369.12 96.746 366.678 99.144 366.678 102.95C366.678 106.778 369.208 109.198 372.64 109.198C375.632 109.198 377.568 107.482 378.184 105.282ZM391.51 106.712L387.726 96.944H385.504L390.366 108.868L387.99 114.676H390.058L397.318 96.944H395.25L391.51 106.712ZM410.771 102.95C410.771 99.144 408.109 96.746 404.677 96.746C401.267 96.746 398.583 99.144 398.583 102.95C398.583 106.778 401.179 109.198 404.589 109.198C408.021 109.198 410.771 106.778 410.771 102.95ZM400.629 102.95C400.629 99.914 402.543 98.484 404.655 98.484C406.723 98.484 408.725 99.914 408.725 102.95C408.725 106.008 406.679 107.438 404.589 107.438C402.499 107.438 400.629 106.008 400.629 102.95ZM424.095 96.944H422.093V103.566C422.093 106.162 420.707 107.438 418.639 107.438C416.615 107.438 415.273 106.184 415.273 103.742V96.944H413.293V104.006C413.293 107.46 415.471 109.176 418.243 109.176C419.849 109.176 421.323 108.472 422.093 107.218V109H424.095V96.944ZM429.477 102.444C429.477 99.65 430.929 98.792 432.843 98.792H433.371V96.724C431.457 96.724 430.159 97.56 429.477 98.902V96.944H427.475V109H429.477V102.444ZM446.674 98.44C448.742 98.44 450.502 99.738 450.48 102.092H442.868C443.088 99.738 444.716 98.44 446.674 98.44ZM452.306 105.282H450.15C449.71 106.58 448.566 107.504 446.762 107.504C444.716 107.504 443 106.162 442.846 103.72H452.482C452.526 103.302 452.548 102.95 452.548 102.51C452.548 99.21 450.26 96.746 446.762 96.746C443.242 96.746 440.8 99.144 440.8 102.95C440.8 106.778 443.33 109.198 446.762 109.198C449.754 109.198 451.69 107.482 452.306 105.282ZM453.76 96.944L458.49 109H460.822L465.552 96.944H463.418L459.678 107.152L455.916 96.944H453.76ZM472.648 98.44C474.716 98.44 476.476 99.738 476.454 102.092H468.842C469.062 99.738 470.69 98.44 472.648 98.44ZM478.28 105.282H476.124C475.684 106.58 474.54 107.504 472.736 107.504C470.69 107.504 468.974 106.162 468.82 103.72H478.456C478.5 103.302 478.522 102.95 478.522 102.51C478.522 99.21 476.234 96.746 472.736 96.746C469.216 96.746 466.774 99.144 466.774 102.95C466.774 106.778 469.304 109.198 472.736 109.198C475.728 109.198 477.664 107.482 478.28 105.282ZM489.987 109H491.967V101.894C491.967 98.44 489.833 96.724 487.039 96.724C485.411 96.724 483.959 97.406 483.167 98.66V96.944H481.165V109H483.167V102.334C483.167 99.738 484.575 98.462 486.621 98.462C488.645 98.462 489.987 99.716 489.987 102.18V109ZM495.677 105.7C495.677 108.12 496.887 109 499.021 109H500.825V107.306H499.351C498.119 107.306 497.679 106.888 497.679 105.7V98.594H500.825V96.944H497.679V93.908H495.677V96.944H494.115V98.594H495.677V105.7ZM511.919 105.722C511.831 101.41 504.835 102.972 504.835 100.112C504.835 99.144 505.715 98.44 507.189 98.44C508.795 98.44 509.719 99.32 509.807 100.53H511.809C511.677 98.176 509.917 96.746 507.255 96.746C504.571 96.746 502.833 98.264 502.833 100.112C502.833 104.6 509.961 103.038 509.961 105.722C509.961 106.712 509.081 107.504 507.497 107.504C505.803 107.504 504.769 106.624 504.659 105.458H502.591C502.723 107.658 504.703 109.198 507.519 109.198C510.181 109.198 511.919 107.702 511.919 105.722Z" fill="black"/>
</svg>
